<?xml version="1.0" encoding="UTF-8"?>
<svg xmlns="http://www.w3.org/2000/svg" width="200" height="200" viewBox="0 0 512 512" preserveAspectRatio="xMidYMid meet">
  <!-- Background -->
  <circle cx="256" cy="256" r="250" fill="#f5f5f5"/>
  
  <!-- Lettuce base -->
  <g id="lettuce">
    <!-- Outer leaves -->
    <path d="M400,256c0,20-25,65-60,90s-70,30-100,30s-70-10-100-30s-60-70-60-90s25-65,60-90s70-30,100-30s70,10,100,30 S400,236,400,256z" fill="#7cb342"/>
    <path d="M380,256c0,15-20,50-50,70s-55,25-85,25s-55-5-85-25s-50-55-50-70s20-50,50-70s55-25,85-25s55,5,85,25 S380,241,380,256z" fill="#8bc34a"/>
    
    <!-- Middle leaves -->
    <path d="M360,256c0,10-15,40-40,55s-45,20-70,20s-45-5-70-20s-40-45-40-55s15-40,40-55s45-20,70-20s45,5,70,20 S360,246,360,256z" fill="#9ccc65"/>
    <path d="M340,256c0,8-10,30-30,42s-35,15-55,15s-35-3-55-15s-30-34-30-42s10-30,30-42s35-15,55-15s35,3,55,15 S340,248,340,256z" fill="#aed581"/>
    
    <!-- Inner leaves -->
    <path d="M320,256c0,5-8,22-23,32s-28,12-42,12s-27-2-42-12s-23-27-23-32s8-22,23-32s28-12,42-12s27,2,42,12 S320,251,320,256z" fill="#c5e1a5"/>
    <path d="M300,256c0,3-5,15-15,22s-20,8-30,8s-20-1-30-8s-15-19-15-22s5-15,15-22s20-8,30-8s20,1,30,8 S300,253,300,256z" fill="#dcedc8"/>
    
    <!-- Center -->
    <circle cx="256" cy="256" r="20" fill="#f1f8e9"/>
  </g>
  
  <!-- Leaf details -->
  <g id="details" fill="none" stroke="#33691e" stroke-width="2" stroke-linecap="round">
    <path d="M256,206c0,0,30,10,50,50"/>
    <path d="M256,206c0,0-30,10-50,50"/>
    <path d="M256,306c0,0,30-10,50-50"/>
    <path d="M256,306c0,0-30-10-50-50"/>
    <path d="M206,256c0,0,10-30,50-50"/>
    <path d="M206,256c0,0,10,30,50,50"/>
    <path d="M306,256c0,0-10-30-50-50"/>
    <path d="M306,256c0,0-10,30-50,50"/>
  </g>
</svg>