<?xml version="1.0" encoding="UTF-8"?>
<svg xmlns="http://www.w3.org/2000/svg" width="200" height="200" viewBox="0 0 512 512" preserveAspectRatio="xMidYMid meet">
  <!-- Background -->
  <circle cx="256" cy="256" r="250" fill="#f5f5f5"/>
  
  <!-- French bread -->
  <g id="french-bread">
    <!-- Bread base -->
    <path d="M390,256c0,35-20,65-55,80s-55,15-85,15s-55-5-85-15s-55-45-55-80s20-65,55-80s55-15,85-15s55,5,85,15 S390,221,390,256z" fill="#e6c999"/>
    
    <!-- Bread crust -->
    <path d="M390,256c0,35-20,65-55,80s-55,15-85,15s-55-5-85-15s-55-45-55-80s20-65,55-80s55-15,85-15s55,5,85,15 S390,221,390,256z" fill="none" stroke="#c4954d" stroke-width="8"/>
    
    <!-- Bread top -->
    <ellipse cx="256" cy="210" rx="120" ry="35" fill="#fff6e5"/>
    
    <!-- Bread cuts -->
    <line x1="186" y1="220" x2="186" y2="280" stroke="#c4954d" stroke-width="4"/>
    <line x1="226" y1="210" x2="226" y2="290" stroke="#c4954d" stroke-width="4"/>
    <line x1="266" y1="210" x2="266" y2="290" stroke="#c4954d" stroke-width="4"/>
    <line x1="306" y1="220" x2="306" y2="280" stroke="#c4954d" stroke-width="4"/>
    
    <!-- Bread texture -->
    <g fill="#ead2a8">
      <circle cx="200" cy="240" r="4"/>
      <circle cx="220" cy="260" r="4"/>
      <circle cx="240" cy="230" r="4"/>
      <circle cx="260" cy="250" r="4"/>
      <circle cx="280" cy="240" r="4"/>
      <circle cx="300" cy="270" r="4"/>
      <circle cx="210" cy="280" r="4"/>
      <circle cx="230" cy="270" r="4"/>
      <circle cx="250" cy="285" r="4"/>
      <circle cx="270" cy="265" r="4"/>
      <circle cx="290" cy="255" r="4"/>
    </g>
    
    <!-- Bread highlights -->
    <ellipse cx="256" cy="210" rx="100" ry="25" fill="#fff" opacity="0.3"/>
    
    <!-- Crumbs -->
    <g fill="#e6c999">
      <circle cx="160" cy="310" r="3"/>
      <circle cx="175" cy="315" r="2"/>
      <circle cx="335" cy="310" r="3"/>
      <circle cx="345" cy="305" r="2"/>
    </g>
  </g>
</svg>