<?xml version="1.0" encoding="UTF-8"?>
<svg xmlns="http://www.w3.org/2000/svg" width="200" height="200" viewBox="0 0 512 512" preserveAspectRatio="xMidYMid meet">
  <!-- Background -->
  <circle cx="256" cy="256" r="250" fill="#f5f5f5"/>
  
  <!-- Bottom bread -->
  <path d="M136,320 C136,340 190,356 256,356 C322,356 376,340 376,320 L376,290 C376,310 322,326 256,326 C190,326 136,310 136,290 Z" fill="#E9B872"/>
  <ellipse cx="256" cy="290" rx="120" ry="36" fill="#F2CA94"/>
  
  <!-- Cheese -->
  <path d="M146,290 C146,290 146,260 146,260 C146,240 196,224 256,224 C316,224 366,240 366,260 L366,290" fill="#F7CF52"/>
  <ellipse cx="256" cy="260" rx="110" ry="36" fill="#FEDA79"/>
  
  <!-- Ham -->
  <path d="M156,260 C156,260 156,230 156,230 C156,210 202,194 256,194 C310,194 356,210 356,230 L356,260" fill="#F99090"/>
  <ellipse cx="256" cy="230" rx="100" ry="36" fill="#F5A7A7"/>
  
  <!-- Top bread -->
  <path d="M166,230 C166,230 166,200 166,200 C166,180 206,164 256,164 C306,164 346,180 346,200 L346,230" fill="#E9B872"/>
  <ellipse cx="256" cy="200" rx="90" ry="36" fill="#F2CA94"/>
  
  <!-- Toasted marks -->
  <line x1="216" y1="164" x2="216" y2="200" stroke="#E09338" stroke-width="3"/>
  <line x1="236" y1="164" x2="236" y2="200" stroke="#E09338" stroke-width="3"/>
  <line x1="256" y1="164" x2="256" y2="200" stroke="#E09338" stroke-width="3"/>
  <line x1="276" y1="164" x2="276" y2="200" stroke="#E09338" stroke-width="3"/>
  <line x1="296" y1="164" x2="296" y2="200" stroke="#E09338" stroke-width="3"/>
  
  <!-- Plate -->
  <ellipse cx="256" cy="356" rx="180" ry="30" fill="#FFFFFF"/>
  <ellipse cx="256" cy="356" rx="175" ry="25" stroke="#EEEEEE" stroke-width="2" fill="none"/>
  
  <!-- Melting cheese -->
  <path d="M266,240 C266,240 266,290 266,320" stroke="#FEDA79" stroke-width="6" stroke-linecap="round" fill="none"/>
  <path d="M236,240 C236,240 226,280 226,310" stroke="#FEDA79" stroke-width="6" stroke-linecap="round" fill="none"/>
  <path d="M286,240 C286,240 296,270 296,295" stroke="#FEDA79" stroke-width="6" stroke-linecap="round" fill="none"/>
</svg>