<?xml version="1.0" encoding="UTF-8"?>
<svg xmlns="http://www.w3.org/2000/svg" width="200" height="200" viewBox="0 0 512 512" preserveAspectRatio="xMidYMid meet">
  <!-- Background -->
  <circle cx="256" cy="256" r="250" fill="#f5f5f5"/>
  
  <!-- Bowl -->
  <ellipse cx="256" cy="340" rx="150" ry="40" fill="#FFFFFF"/>
  <path d="M106,340 C106,320 190,290 256,290 C322,290 406,320 406,340" fill="none" stroke="#EEEEEE" stroke-width="2"/>
  <path d="M136,340 C136,276 190,220 256,220 C322,220 376,276 376,340" fill="#FFFFFF" stroke="#EEEEEE" stroke-width="2"/>
  
  <!-- Lettuce -->
  <g fill="#7FB069">
    <path d="M180,260 C190,240 170,240 180,220 C190,200 210,220 210,210 C210,200 220,200 220,210 C220,220 240,210 250,230 C260,250 240,250 250,270 C260,290 230,280 220,300 C210,320 190,300 180,320 C170,340 160,310 150,300 C140,290 150,280 150,260 C150,240 170,240 180,260 Z" opacity="0.6"/>
    <path d="M250,270 C260,250 280,260 290,240 C300,220 320,240 320,230 C320,220 330,220 330,230 C330,240 350,230 360,250 C370,270 350,270 360,290 C370,310 340,300 330,320 C320,340 300,320 290,340 C280,360 270,330 260,320 C250,310 260,300 260,280 C260,260 240,250 250,270 Z" opacity="0.6"/>
  </g>
  
  <!-- Ham Slices -->
  <g fill="#F99090">
    <path d="M190,280 L220,280 L230,290 L225,300 L215,305 L200,303 L190,295 Z" opacity="0.9"/>
    <path d="M210,310 L240,310 L250,320 L245,330 L235,335 L220,333 L210,325 Z" opacity="0.9"/>
    <path d="M260,280 L290,280 L300,290 L295,300 L285,305 L270,303 L260,295 Z" opacity="0.9"/>
    <path d="M280,310 L310,310 L320,320 L315,330 L305,335 L290,333 L280,325 Z" opacity="0.9"/>
  </g>
  
  <!-- Tomato -->
  <g>
    <circle cx="230" cy="265" r="15" fill="#E24C4C"/>
    <circle cx="230" cy="265" r="10" fill="#EA6B6B"/>
    <circle cx="230" cy="265" r="5" fill="#F29494"/>
    
    <circle cx="270" cy="315" r="15" fill="#E24C4C"/>
    <circle cx="270" cy="315" r="10" fill="#EA6B6B"/>
    <circle cx="270" cy="315" r="5" fill="#F29494"/>
    
    <circle cx="300" cy="275" r="15" fill="#E24C4C"/>
    <circle cx="300" cy="275" r="10" fill="#EA6B6B"/>
    <circle cx="300" cy="275" r="5" fill="#F29494"/>
  </g>
  
  <!-- Dressing -->
  <path d="M170,260 C230,290 280,270 330,250" stroke="#4C6B1E" stroke-width="1" fill="none" opacity="0.4"/>
  <path d="M190,290 C240,310 290,280 320,290" stroke="#4C6B1E" stroke-width="1" fill="none" opacity="0.4"/>
  <path d="M210,320 C260,330 290,310 310,330" stroke="#4C6B1E" stroke-width="1" fill="none" opacity="0.4"/>
  
  <!-- Oil drizzle -->
  <g fill="#F4EBC3" opacity="0.5">
    <circle cx="200" cy="270" r="2"/>
    <circle cx="210" cy="290" r="2"/>
    <circle cx="230" cy="300" r="2"/>
    <circle cx="250" cy="280" r="2"/>
    <circle cx="270" cy="270" r="2"/>
    <circle cx="290" cy="290" r="2"/>
    <circle cx="310" cy="300" r="2"/>
    <circle cx="270" cy="320" r="2"/>
    <circle cx="240" cy="330" r="2"/>
    <circle cx="220" cy="310" r="2"/>
  </g>
</svg>