<?xml version="1.0" encoding="UTF-8"?>
<svg xmlns="http://www.w3.org/2000/svg" width="200" height="200" viewBox="0 0 512 512" preserveAspectRatio="xMidYMid meet">
  <!-- Background -->
  <circle cx="256" cy="256" r="250" fill="#f5f5f5"/>
  
  <!-- Bowl -->
  <ellipse cx="256" cy="340" rx="150" ry="40" fill="#FFFFFF"/>
  <path d="M106,340 C106,320 190,290 256,290 C322,290 406,320 406,340" fill="none" stroke="#EEEEEE" stroke-width="2"/>
  <path d="M136,340 C136,276 190,220 256,220 C322,220 376,276 376,340" fill="#FFFFFF" stroke="#EEEEEE" stroke-width="2"/>
  
  <!-- Lettuce -->
  <g fill="#7FB069">
    <path d="M200,260 C210,240 190,240 200,220 C210,200 230,220 230,210 C230,200 240,200 240,210 C240,220 260,210 270,230 C280,250 260,250 270,270 C280,290 250,280 240,300 C230,320 210,300 200,320 C190,340 180,310 170,300 C160,290 170,280 170,260 C170,240 190,240 200,260 Z" opacity="0.6"/>
    <path d="M240,250 C250,230 270,240 280,220 C290,200 310,220 310,210 C310,200 320,200 320,210 C320,220 340,210 350,230 C360,250 340,250 350,270 C360,290 330,280 320,300 C310,320 290,300 280,320 C270,340 260,310 250,300 C240,290 250,280 250,260 C250,240 230,230 240,250 Z" opacity="0.6"/>
    <path d="M170,300 C180,280 160,280 170,260 C180,240 200,260 200,250 C200,240 210,240 210,250 C210,260 230,250 240,270 C250,290 230,290 240,310 C250,330 220,320 210,340 C200,360 180,340 170,360 C160,380 150,350 140,340 C130,330 140,320 140,300 C140,280 160,280 170,300 Z" opacity="0.7"/>
  </g>
  
  <!-- Croutons -->
  <g fill="#D6AA7E">
    <rect x="230" y="280" width="15" height="15" rx="2"/>
    <rect x="270" y="310" width="15" height="15" rx="2"/>
    <rect x="210" y="320" width="15" height="15" rx="2"/>
    <rect x="260" y="270" width="15" height="15" rx="2"/>
    <rect x="190" y="290" width="15" height="15" rx="2"/>
    <rect x="300" y="280" width="15" height="15" rx="2"/>
  </g>
  
  <!-- Parmesan -->
  <g fill="#F7F3E3">
    <path d="M210,270 L220,280 L225,270 Z"/>
    <path d="M250,290 L260,300 L270,285 Z"/>
    <path d="M190,310 L200,320 L205,310 Z"/>
    <path d="M240,330 L250,340 L260,325 Z"/>
    <path d="M290,300 L300,310 L305,300 Z"/>
    <path d="M270,260 L280,270 L285,260 Z"/>
  </g>
  
  <!-- Dressing drizzle -->
  <path d="M170,260 C230,290 280,270 330,250" stroke="#E6D7B8" stroke-width="2" fill="none"/>
  <path d="M190,290 C240,310 290,280 320,290" stroke="#E6D7B8" stroke-width="2" fill="none"/>
  <path d="M220,320 C260,330 290,310 310,330" stroke="#E6D7B8" stroke-width="2" fill="none"/>
</svg>