<?xml version="1.0" encoding="UTF-8"?>
<svg width="300" height="200" viewBox="0 0 300 200" fill="none" xmlns="http://www.w3.org/2000/svg">
  <rect width="300" height="200" fill="#F5F7FB"/>
  <rect x="100" y="60" width="100" height="80" rx="8" fill="white" stroke="#E5E7EB"/>
  <text x="150" y="85" font-family="Arial" font-size="12" text-anchor="middle" fill="#333">Notificação</text>
  <text x="150" y="105" font-family="Arial" font-size="10" text-anchor="middle" fill="#666">Leite Integral expira</text>
  <text x="150" y="120" font-family="Arial" font-size="10" text-anchor="middle" fill="#666">em 3 dias</text>
  <g transform="translate(135, 40)">
    <path fill="#4338CA" d="M16 3C14.9 3 14 3.9 14 5V7H8C6.9 7 6 7.9 6 9V19C6 20.1 6.9 21 8 21H20C21.1 21 22 20.1 22 19V9C22 7.9 21.1 7 20 7H18V5C18 3.9 17.1 3 16 3ZM16 5H18V7H16V5ZM10 9H18C19.1 9 20 9.9 20 11V17C20 18.1 19.1 19 18 19H10C8.9 19 8 18.1 8 17V11C8 9.9 8.9 9 10 9Z" opacity="0.8"/>
    <circle cx="25" cy="10" r="6" fill="#EF4444"/>
    <text x="25" y="13" font-family="Arial" font-size="8" text-anchor="middle" fill="white">1</text>
  </g>
</svg>