<?xml version="1.0" encoding="UTF-8"?>
<svg width="300" height="200" viewBox="0 0 300 200" fill="none" xmlns="http://www.w3.org/2000/svg">
  <rect width="300" height="200" fill="#F5F7FB"/>
  <rect x="70" y="50" width="160" height="120" rx="8" fill="white" stroke="#E5E7EB"/>
  
  <text x="150" y="75" font-family="Arial" font-size="14" text-anchor="middle" fill="#333">Receitas</text>
  
  <!-- Receita -->
  <rect x="85" y="85" width="130" height="70" rx="6" fill="#F3F4F6"/>
  <rect x="95" y="95" width="110" height="15" rx="2" fill="white"/>
  <text x="150" y="106" font-family="Arial" font-size="10" text-anchor="middle" fill="#333">Pudim de Leite</text>
  
  <rect x="95" y="115" width="50" height="15" rx="2" fill="#4338CA" opacity="0.2"/>
  <text x="120" y="125" font-family="Arial" font-size="8" text-anchor="middle" fill="#4338CA">Fácil</text>
  
  <rect x="150" y="115" width="55" height="15" rx="2" fill="white"/>
  <text x="177" y="125" font-family="Arial" font-size="8" text-anchor="middle" fill="#666">30 minutos</text>
  
  <rect x="95" y="135" width="110" height="10" rx="2" fill="white"/>
  <text x="150" y="143" font-family="Arial" font-size="7" text-anchor="middle" fill="#666">Leite + Ovos + Açúcar</text>
  
  <!-- Ícone de chef -->
  <g transform="translate(170, 55)">
    <circle cx="10" cy="10" r="10" fill="#4338CA" opacity="0.2"/>
    <path d="M10 15C12.2091 15 14 13.2091 14 11C14 8.79086 12.2091 7 10 7C7.79086 7 6 8.79086 6 11C6 13.2091 7.79086 15 10 15Z" fill="#4338CA" opacity="0.8"/>
    <path d="M7 6C7 4.34315 8.34315 3 10 3C11.6569 3 13 4.34315 13 6" stroke="#4338CA" stroke-width="1.5"/>
    <path d="M14 6H6" stroke="#4338CA" stroke-width="1.5"/>
  </g>
</svg>